# xmcd
#
# Track frame offsets:
#	150
#	20748
#	40664
#	59399
#	74788
#	94815
#	111136
#	134602
#	152920
#	168677
#	181782
#
# Disc length: 2678 seconds
# Revision: 1
# Processed by: cddbd v1.5.2PL0 Copyright (c) Steve Scherf et al.
# Submitted via: dBpowerAMP V12.0
#
DISCID=9f0a740b
DTITLE=Hardened and Tempered - The Trailer Sessions
DYEAR=2017
DGENRE=Country
TTITLE0=My Wildest Ride
TTITLE1=Heartbreak Transit Line
TTITLE2=Hard Winds
TTITLE3=Ricochet
TTITLE4=House of the Soiled Dove
TTITLE5=Dry County
TTITLE6=Family Secrets
TTITLE7=Centerville
TTITLE8=Crossing Over the Rio Grande
TTITLE9=Leavin' in the Morning
TTITLE10=Path Already Paved
EXTD=
EXTT0=
EXTT1=
EXTT2=
EXTT3=
EXTT4=
EXTT5=
EXTT6=
EXTT7=
EXTT8=
EXTT9=
EXTT10=
PLAYORDER=
